<svg width="45" height="45" viewBox="0 0 45 45" fill="none" xmlns="http://www.w3.org/2000/svg">
<circle cx="22.5" cy="22.5" r="22.5" fill="white"/>
<g clip-path="url(#clip0)">
<path d="M38.5625 33.6688L32.3312 27.4375C32.05 27.1562 31.6687 27 31.2687 27H30.25C31.975 24.7938 33 22.0187 33 19C33 11.8187 27.1812 6 20 6C12.8187 6 7 11.8187 7 19C7 26.1812 12.8187 32 20 32C23.0187 32 25.7937 30.975 28 29.25V30.2687C28 30.6687 28.1562 31.05 28.4375 31.3312L34.6687 37.5625C35.2562 38.15 36.2062 38.15 36.7875 37.5625L38.5562 35.7938C39.1437 35.2063 39.1437 34.2563 38.5625 33.6688ZM20 27C15.5812 27 12 23.425 12 19C12 14.5813 15.575 11 20 11C24.4187 11 28 14.575 28 19C28 23.4188 24.425 27 20 27Z" fill="#FF6600"/>
</g>
<defs>
<clipPath id="clip0">
<rect width="32" height="32" fill="white" transform="translate(7 6)"/>
</clipPath>
</defs>
</svg>
