<svg width="45" height="45" viewBox="0 0 45 45" fill="none" xmlns="http://www.w3.org/2000/svg">
<path d="M22.5 0.703125C10.0706 0.703125 0 10.459 0 22.5C0 34.541 10.0706 44.2969 22.5 44.2969C34.9294 44.2969 45 34.541 45 22.5C45 10.459 34.9294 0.703125 22.5 0.703125ZM22.5 9.14062C26.9093 9.14062 30.4839 12.6035 30.4839 16.875C30.4839 21.1465 26.9093 24.6094 22.5 24.6094C18.0907 24.6094 14.5161 21.1465 14.5161 16.875C14.5161 12.6035 18.0907 9.14062 22.5 9.14062ZM22.5 39.375C17.1744 39.375 12.4022 37.0371 9.20867 33.3809C10.9143 30.2695 14.253 28.125 18.1452 28.125C18.3629 28.125 18.5806 28.1602 18.7893 28.2217C19.9688 28.5908 21.2026 28.8281 22.5 28.8281C23.7974 28.8281 25.0403 28.5908 26.2107 28.2217C26.4194 28.1602 26.6371 28.125 26.8548 28.125C30.747 28.125 34.0857 30.2695 35.7913 33.3809C32.5978 37.0371 27.8256 39.375 22.5 39.375Z" fill="white"/>
</svg>
