<svg width="45" height="45" viewBox="0 0 45 45" fill="none" xmlns="http://www.w3.org/2000/svg">
<circle cx="22.5" cy="22.5" r="22.5" fill="white"/>
<path d="M36.1737 26.6554L38.9642 14.4679C39.1656 13.5879 38.4918 12.75 37.5827 12.75H14.3977L13.8566 10.1244C13.7218 9.46998 13.1417 9 12.4687 9H6.41667C5.63425 9 5 9.62959 5 10.4062V11.3438C5 12.1204 5.63425 12.75 6.41667 12.75H10.5417L14.6883 32.8731C13.6963 33.4395 13.0278 34.5013 13.0278 35.7188C13.0278 37.5309 14.5077 39 16.3333 39C18.1589 39 19.6389 37.5309 19.6389 35.7188C19.6389 34.8004 19.2583 33.9706 18.6458 33.375H31.0208C30.4083 33.9706 30.0278 34.8004 30.0278 35.7188C30.0278 37.5309 31.5077 39 33.3333 39C35.1589 39 36.6389 37.5309 36.6389 35.7188C36.6389 34.4196 35.8781 33.297 34.7748 32.7653L35.1005 31.3429C35.302 30.4629 34.6282 29.625 33.7191 29.625H17.875L17.4886 27.75H34.7923C35.4538 27.75 36.0272 27.2957 36.1737 26.6554Z" fill="#FF6600"/>
</svg>
