<svg width="71" height="59" viewBox="0 0 71 59" fill="none" xmlns="http://www.w3.org/2000/svg">
<path d="M36.5 0.703125C24.0706 0.703125 14 10.459 14 22.5C14 34.541 24.0706 44.2969 36.5 44.2969C48.9294 44.2969 59 34.541 59 22.5C59 10.459 48.9294 0.703125 36.5 0.703125ZM36.5 9.14062C40.9093 9.14062 44.4839 12.6035 44.4839 16.875C44.4839 21.1465 40.9093 24.6094 36.5 24.6094C32.0907 24.6094 28.5161 21.1465 28.5161 16.875C28.5161 12.6035 32.0907 9.14062 36.5 9.14062ZM36.5 39.375C31.1744 39.375 26.4022 37.0371 23.2087 33.3809C24.9143 30.2695 28.253 28.125 32.1452 28.125C32.3629 28.125 32.5806 28.1602 32.7893 28.2217C33.9688 28.5908 35.2026 28.8281 36.5 28.8281C37.7974 28.8281 39.0403 28.5908 40.2107 28.2217C40.4194 28.1602 40.6371 28.125 40.8548 28.125C44.747 28.125 48.0857 30.2695 49.7913 33.3809C46.5978 37.0371 41.8256 39.375 36.5 39.375Z" fill="white"/>
<path d="M4.62 58.14C3.35067 58.14 2.38 57.734 1.708 56.922C1.036 56.11 0.700001 54.836 0.700001 53.1C0.700001 51.3733 1.02667 50.104 1.68 49.292C2.34267 48.4707 3.276 48.06 4.48 48.06C5.18933 48.06 5.824 48.1907 6.384 48.452C6.636 48.5547 6.86467 48.6807 7.07 48.83L6.44 49.95H6.3C6.19733 49.8567 6.048 49.754 5.852 49.642C5.44133 49.4273 5.03067 49.32 4.62 49.32C4.004 49.32 3.52333 49.6047 3.178 50.174C2.83267 50.7433 2.66 51.7187 2.66 53.1C2.66 54.4907 2.83733 55.4707 3.192 56.04C3.556 56.6 4.07867 56.88 4.76 56.88C5.18933 56.88 5.6 56.7773 5.992 56.572C6.19733 56.4507 6.34667 56.3433 6.44 56.25H6.58L7.21 57.37C7.02333 57.5193 6.79467 57.65 6.524 57.762C5.98267 58.014 5.348 58.14 4.62 58.14ZM10.9988 58.14C9.96275 58.14 9.16475 57.8367 8.60475 57.23C8.05408 56.6233 7.77875 55.7133 7.77875 54.5C7.77875 53.2867 8.05408 52.3767 8.60475 51.77C9.16475 51.1633 9.96275 50.86 10.9988 50.86C12.0348 50.86 12.8281 51.1633 13.3788 51.77C13.9388 52.3767 14.2188 53.2867 14.2188 54.5C14.2188 55.7133 13.9388 56.6233 13.3788 57.23C12.8281 57.8367 12.0348 58.14 10.9988 58.14ZM10.9988 56.88C11.8388 56.88 12.2588 56.0867 12.2588 54.5C12.2588 52.9133 11.8388 52.12 10.9988 52.12C10.1588 52.12 9.73875 52.9133 9.73875 54.5C9.73875 56.0867 10.1588 56.88 10.9988 56.88ZM15.7593 51H17.1593L17.2993 51.84H17.3693C17.4626 51.7 17.6213 51.5367 17.8453 51.35C18.284 51.0233 18.7553 50.86 19.2593 50.86C20.1086 50.86 20.762 51.0933 21.2193 51.56C21.686 52.0173 21.9193 52.6707 21.9193 53.52V58H19.9593V53.52C19.9593 53.0813 19.866 52.75 19.6793 52.526C19.4926 52.302 19.236 52.19 18.9093 52.19C18.6013 52.19 18.3073 52.33 18.0273 52.61C17.934 52.722 17.8313 52.862 17.7193 53.03V58H15.7593V51ZM26.542 58.14C25.7394 58.14 25.1047 57.9207 24.638 57.482C24.1807 57.0433 23.952 56.4693 23.952 55.76V52.26H23.042V51.42L25.142 49.32H25.912V51H27.522V52.26H25.912V55.76C25.912 56.1333 25.982 56.4133 26.122 56.6C26.262 56.7867 26.4487 56.88 26.682 56.88C26.962 56.88 27.2374 56.7867 27.508 56.6C27.6294 56.516 27.7507 56.4227 27.872 56.32H28.012L28.642 57.44C28.3994 57.5987 28.1894 57.7153 28.012 57.79C27.508 58.0233 27.018 58.14 26.542 58.14ZM32.2826 58.14C31.4332 58.14 30.7752 57.9113 30.3086 57.454C29.8512 56.9873 29.6226 56.3293 29.6226 55.48V51H31.5826V55.48C31.5826 55.9187 31.6759 56.25 31.8626 56.474C32.0492 56.698 32.3059 56.81 32.6326 56.81C32.9406 56.81 33.2346 56.67 33.5146 56.39C33.6079 56.278 33.7106 56.138 33.8226 55.97V51H35.7826V58H34.3826L34.2426 57.16H34.1726C34.0139 57.3653 33.8552 57.5287 33.6966 57.65C33.3046 57.9767 32.8332 58.14 32.2826 58.14ZM37.7437 58V48.76L38.3037 48.2H39.7037V58H37.7437ZM45.8648 51H47.2648L47.4048 51.84H47.4748C47.5774 51.6907 47.7268 51.5273 47.9228 51.35C48.3241 51.0233 48.7581 50.86 49.2248 50.86C49.7941 50.86 50.2701 51.0233 50.6528 51.35C50.8208 51.5087 50.9514 51.672 51.0448 51.84C51.1754 51.6813 51.3574 51.518 51.5908 51.35C52.1134 51.0233 52.6314 50.86 53.1448 50.86C53.9288 50.86 54.5448 51.0933 54.9928 51.56C55.4408 52.0267 55.6648 52.68 55.6648 53.52V58H53.7048V53.52C53.7048 53.0907 53.6161 52.764 53.4388 52.54C53.2708 52.3067 53.0561 52.19 52.7948 52.19C52.5428 52.19 52.2908 52.3067 52.0388 52.54C51.9734 52.6053 51.8754 52.722 51.7448 52.89V58H49.7848V53.52C49.7848 53.0907 49.6961 52.764 49.5188 52.54C49.3508 52.3067 49.1361 52.19 48.8748 52.19C48.5761 52.19 48.3148 52.33 48.0908 52.61C47.9694 52.7687 47.8808 52.9087 47.8248 53.03V58H45.8648V51ZM60.6342 58.14C58.3009 58.14 57.1342 56.9267 57.1342 54.5C57.1342 53.3053 57.4049 52.4 57.9462 51.784C58.4876 51.168 59.2436 50.86 60.2142 50.86C61.1756 50.86 61.9269 51.1587 62.4682 51.756C63.0189 52.3533 63.2942 53.2213 63.2942 54.36V54.71L62.8742 55.13H59.0942C59.0942 56.2967 59.6542 56.88 60.7742 56.88C61.1662 56.88 61.5256 56.7867 61.8522 56.6C61.9829 56.5347 62.1136 56.4413 62.2442 56.32H62.3842L63.0142 57.44C62.7529 57.5987 62.5289 57.7153 62.3422 57.79C61.7822 58.0233 61.2129 58.14 60.6342 58.14ZM61.3342 53.87C61.3342 53.31 61.2222 52.8807 60.9982 52.582C60.7836 52.274 60.5222 52.12 60.2142 52.12C59.9062 52.12 59.6402 52.274 59.4162 52.582C59.2016 52.8807 59.0942 53.31 59.0942 53.87H61.3342ZM67.4877 58.14C66.6383 58.14 65.9803 57.9113 65.5137 57.454C65.0563 56.9873 64.8277 56.3293 64.8277 55.48V51H66.7877V55.48C66.7877 55.9187 66.881 56.25 67.0677 56.474C67.2543 56.698 67.511 56.81 67.8377 56.81C68.1457 56.81 68.4397 56.67 68.7197 56.39C68.813 56.278 68.9157 56.138 69.0277 55.97V51H70.9877V58H69.5877L69.4477 57.16H69.3777C69.219 57.3653 69.0603 57.5287 68.9017 57.65C68.5097 57.9767 68.0383 58.14 67.4877 58.14Z" fill="white"/>
</svg>
