<svg width="45" height="45" viewBox="0 0 45 45" fill="none" xmlns="http://www.w3.org/2000/svg">
<circle cx="22.5" cy="22.5" r="22.5" fill="white"/>
<path d="M22.5 17.5781C25.6094 17.5781 28.125 19.7793 28.125 22.5C28.125 25.2207 25.6094 27.4219 22.5 27.4219C19.3906 27.4219 16.875 25.2207 16.875 22.5C16.875 19.7793 19.3906 17.5781 22.5 17.5781ZM16.875 10.4688C16.875 13.1895 19.3906 15.3906 22.5 15.3906C25.6094 15.3906 28.125 13.1895 28.125 10.4688C28.125 7.74805 25.6094 5.54688 22.5 5.54688C19.3906 5.54688 16.875 7.74805 16.875 10.4688ZM16.875 34.5312C16.875 37.252 19.3906 39.4531 22.5 39.4531C25.6094 39.4531 28.125 37.252 28.125 34.5312C28.125 31.8105 25.6094 29.6094 22.5 29.6094C19.3906 29.6094 16.875 31.8105 16.875 34.5312Z" fill="#FF6600"/>
</svg>
