<svg height="512pt" style="fill: #fff;" viewBox="-71 0 511 512" width="512pt" xmlns="http://www.w3.org/2000/svg"><path d="m361.171875 288.066406c-4.183594 0-7.570313 3.386719-7.570313 7.570313v169.125c-19.0625 0-142.414062 0-161.410156 0 0-22.425781 0-426.777344 0-449.621094h43.242188c4.183594 0 7.570312-3.390625 7.570312-7.570313 0-4.183593-3.386718-7.570312-7.570312-7.570312-6.007813 0-221.089844 0-227.363282 0-4.183593 0-7.570312 3.386719-7.570312 7.570312v126.582032c0 4.179687 3.386719 7.570312 7.570312 7.570312 4.179688 0 7.570313-3.390625 7.570313-7.570312v-119.011719h161.410156v268.964844h-161.410156v-119.675781c0-4.179688-3.390625-7.570313-7.570313-7.570313-4.183593 0-7.570312 3.390625-7.570312 7.570313v307.902343c0 4.183594 3.386719 7.570313 7.570312 7.570313h27.34375v24.527344c0 4.183593 3.390626 7.570312 7.570313 7.570312h31.625c4.179687 0 7.570313-3.386719 7.570313-7.570312v-24.527344h204.882812v24.527344c0 4.183593 3.386719 7.570312 7.570312 7.570312h31.621094c4.183594 0 7.570313-3.386719 7.570313-7.570312v-24.527344h27.347656c4.179687 0 7.570313-3.386719 7.570313-7.570313v-176.695312c0-4.183594-3.390626-7.570313-7.570313-7.570313zm-294.132813 208.792969h-16.484374v-16.957031h16.484374zm110.011719-32.097656c-7.082031 0-154.308593 0-161.410156 0v-165.515625h161.410156zm141.636719 32.097656h-16.488281v-16.957031h16.488281zm0 0"/><path d="m361.171875 0h-95.460937c-4.179688 0-7.566407 3.386719-7.566407 7.570312 0 4.179688 3.386719 7.570313 7.566407 7.570313h87.890624v250.21875c0 4.179687 3.386719 7.566406 7.570313 7.566406 4.179687 0 7.570313-3.386719 7.570313-7.566406v-257.789063c0-4.183593-3.390626-7.570312-7.570313-7.570312zm0 0"/><path d="m131.460938 251.808594c4.183593 0 7.570312-3.386719 7.570312-7.570313v-207.910156c0-4.183594-3.386719-7.570313-7.570312-7.570313h-96.890626c-4.179687 0-7.566406 3.386719-7.566406 7.570313v207.910156c0 4.183594 3.386719 7.570313 7.566406 7.570313zm-89.320313-207.910156h81.753906v192.769531h-81.753906zm0 0"/><path d="m166.023438 244.238281v-207.910156c0-4.183594-3.386719-7.570313-7.570313-7.570313-4.179687 0-7.570313 3.386719-7.570313 7.570313v207.910156c0 4.183594 3.390626 7.570313 7.570313 7.570313 4.183594 0 7.570313-3.386719 7.570313-7.570313zm0 0"/><path d="m90.316406 110.960938c-3.261718-2.617188-8.027344-2.09375-10.644531 1.167968l-29.0625 36.238282c-4 4.984374-.367187 12.304687 5.902344 12.304687 2.214843 0 4.414062-.972656 5.90625-2.835937l29.066406-36.234376c2.613281-3.261718 2.089844-8.027343-1.167969-10.640624zm0 0"/><path d="m105.316406 160.53125c-3.261718-2.617188-8.023437-2.09375-10.640625 1.167969l-14.53125 18.117187c-2.617187 3.261719-2.089843 8.027344 1.167969 10.640625 3.273438 2.625 8.035156 2.082031 10.640625-1.167969l14.53125-18.117187c2.617187-3.261719 2.09375-8.027344-1.167969-10.640625zm0 0"/><path d="m79.050781 90.90625c2.21875 0 4.414063-.96875 5.910157-2.832031l14.53125-18.121094c2.617187-3.261719 2.09375-8.023437-1.167969-10.640625s-8.027344-2.089844-10.640625 1.167969l-14.53125 18.121093c-4 4.988282-.367188 12.304688 5.898437 12.304688zm0 0"/><path d="m74.078125 335.578125h46.144531c4.183594 0 7.570313-3.386719 7.570313-7.570313 0-4.179687-3.386719-7.570312-7.570313-7.570312h-46.144531c-4.183594 0-7.570313 3.390625-7.570313 7.570312 0 4.183594 3.386719 7.570313 7.570313 7.570313zm0 0"/><path d="m207.328125 104.046875v230.019531c0 4.179688 3.390625 7.566406 7.570313 7.566406 4.179687 0 7.570312-3.386718 7.570312-7.566406v-230.019531c0-4.183594-3.390625-7.570313-7.570312-7.570313-4.179688 0-7.570313 3.386719-7.570313 7.570313zm0 0"/></svg>